<mxfile host="app.diagrams.net" agent="Mozilla/5.0 (Windows NT 10.0; Win64; x64; rv:130.0) Gecko/20100101 Firefox/130.0" version="24.7.12">
  <diagram name="Page-1" id="hJQSSTD4_o5KoV_Qv5LV">
    <mxGraphModel dx="1433" dy="674" grid="1" gridSize="10" guides="1" tooltips="1" connect="1" arrows="1" fold="1" page="1" pageScale="1" pageWidth="850" pageHeight="1100" math="0" shadow="0">
      <root>
        <mxCell id="0" />
        <mxCell id="1" parent="0" />
        <mxCell id="r8TldyLNZNYGHYZAbkJL-1" value="Edit Account" style="rounded=0;whiteSpace=wrap;html=1;" vertex="1" parent="1">
          <mxGeometry width="120" height="60" as="geometry" />
        </mxCell>
        <mxCell id="r8TldyLNZNYGHYZAbkJL-2" value="" style="ellipse;whiteSpace=wrap;html=1;strokeColor=#000000;" vertex="1" parent="1">
          <mxGeometry y="80" width="160" height="40" as="geometry" />
        </mxCell>
        <mxCell id="r8TldyLNZNYGHYZAbkJL-3" value="INPUT" style="shape=parallelogram;perimeter=parallelogramPerimeter;whiteSpace=wrap;html=1;fixedSize=1;strokeColor=#00FF00;" vertex="1" parent="1">
          <mxGeometry x="20" y="130" width="170" height="60" as="geometry" />
        </mxCell>
        <mxCell id="r8TldyLNZNYGHYZAbkJL-4" value="" style="rounded=0;whiteSpace=wrap;html=1;strokeColor=#FF8000;" vertex="1" parent="1">
          <mxGeometry x="10" y="260" width="160" height="60" as="geometry" />
        </mxCell>
        <mxCell id="r8TldyLNZNYGHYZAbkJL-5" value="" style="rhombus;whiteSpace=wrap;html=1;strokeColor=#9933FF;" vertex="1" parent="1">
          <mxGeometry y="320" width="190" height="80" as="geometry" />
        </mxCell>
        <mxCell id="r8TldyLNZNYGHYZAbkJL-6" value="Begin Program" style="ellipse;whiteSpace=wrap;html=1;strokeColor=#000000;" vertex="1" parent="1">
          <mxGeometry x="335" y="10" width="160" height="40" as="geometry" />
        </mxCell>
        <mxCell id="r8TldyLNZNYGHYZAbkJL-7" value="" style="endArrow=classic;html=1;rounded=0;" edge="1" parent="1">
          <mxGeometry width="50" height="50" relative="1" as="geometry">
            <mxPoint x="170" y="90" as="sourcePoint" />
            <mxPoint x="220" y="40" as="targetPoint" />
          </mxGeometry>
        </mxCell>
        <mxCell id="r8TldyLNZNYGHYZAbkJL-8" value="&lt;div&gt;BankAccountType&lt;/div&gt;&lt;div&gt;int accountNumber&lt;/div&gt;&lt;div&gt;string name&lt;/div&gt;&lt;div&gt;double balance&lt;br&gt;&lt;/div&gt;" style="rounded=0;whiteSpace=wrap;html=1;" vertex="1" parent="1">
          <mxGeometry y="400" width="160" height="70" as="geometry" />
        </mxCell>
        <mxCell id="r8TldyLNZNYGHYZAbkJL-9" value="&lt;div&gt;savingsAccountType&lt;/div&gt;&lt;div&gt;double interestRate&lt;br&gt;&lt;/div&gt;" style="rounded=0;whiteSpace=wrap;html=1;" vertex="1" parent="1">
          <mxGeometry x="10" y="490" width="120" height="60" as="geometry" />
        </mxCell>
        <mxCell id="r8TldyLNZNYGHYZAbkJL-11" value="&lt;div&gt;This function will print a UI so that after logging the user can create an account or choice current accounts. find the number of bank accounts created. And no accounts exist it will ask you to create one. Once it was found the number of bank accounts it will list them with its index to the left ex:&lt;/div&gt;&lt;div&gt;select an account&lt;br&gt;&lt;/div&gt;&lt;div&gt;-----------------------------------------&lt;br&gt;&lt;/div&gt;&lt;div&gt;&amp;lt;0&amp;gt; create bank account&lt;/div&gt;&lt;div&gt;&amp;lt;1&amp;gt; savingsAccoount - 3463235&lt;/div&gt;&lt;div&gt;-------------------------------------&lt;/div&gt;&lt;div&gt;enter an negiave value to exit&amp;nbsp; -&amp;gt;:&lt;/div&gt;&lt;div&gt;&lt;br&gt;&lt;/div&gt;&lt;div&gt;The logic of the the problem the program prints bank accounts by index &amp;lt;i&amp;gt; using the function viewAccount(). 2. the user enter a value (0, numnodes). and 0 is to exit. 3. next a function called getNodeByIndex(int ) will get the index and determine t&lt;/div&gt;&lt;div&gt;he user intended account. 4. next after the node is found it will puts its address into the function call accountUI(*)&lt;br&gt;&lt;/div&gt;&lt;div&gt;&lt;br&gt;&lt;/div&gt;" style="rounded=0;whiteSpace=wrap;html=1;" vertex="1" parent="1">
          <mxGeometry x="640" y="70" width="210" height="510" as="geometry" />
        </mxCell>
        <mxCell id="r8TldyLNZNYGHYZAbkJL-12" value="" style="shape=parallelogram;perimeter=parallelogramPerimeter;whiteSpace=wrap;html=1;fixedSize=1;strokeColor=#0000FF;" vertex="1" parent="1">
          <mxGeometry x="10" y="200" width="170" height="60" as="geometry" />
        </mxCell>
        <mxCell id="r8TldyLNZNYGHYZAbkJL-18" value="" style="edgeStyle=orthogonalEdgeStyle;rounded=0;orthogonalLoop=1;jettySize=auto;html=1;entryX=1;entryY=0.5;entryDx=0;entryDy=0;" edge="1" parent="1" source="r8TldyLNZNYGHYZAbkJL-13">
          <mxGeometry relative="1" as="geometry">
            <mxPoint x="475" y="465" as="targetPoint" />
            <Array as="points">
              <mxPoint x="495" y="380" />
              <mxPoint x="495" y="465" />
            </Array>
          </mxGeometry>
        </mxCell>
        <mxCell id="r8TldyLNZNYGHYZAbkJL-13" value="&lt;div&gt;INPUT&lt;/div&gt;Choice" style="shape=parallelogram;perimeter=parallelogramPerimeter;whiteSpace=wrap;html=1;fixedSize=1;strokeColor=#00FF00;" vertex="1" parent="1">
          <mxGeometry x="320" y="360" width="170" height="60" as="geometry" />
        </mxCell>
        <mxCell id="r8TldyLNZNYGHYZAbkJL-21" value="totalNodes = nodeType::getNodeCount" style="rounded=0;whiteSpace=wrap;html=1;strokeColor=#FF8000;" vertex="1" parent="1">
          <mxGeometry x="150" y="430" width="160" height="60" as="geometry" />
        </mxCell>
        <mxCell id="r8TldyLNZNYGHYZAbkJL-22" value="index = 0;" style="rounded=0;whiteSpace=wrap;html=1;strokeColor=#FF8000;" vertex="1" parent="1">
          <mxGeometry x="345" y="230" width="130" height="30" as="geometry" />
        </mxCell>
        <mxCell id="r8TldyLNZNYGHYZAbkJL-23" value="printAccountList()" style="shape=parallelogram;perimeter=parallelogramPerimeter;whiteSpace=wrap;html=1;fixedSize=1;strokeColor=#0000FF;" vertex="1" parent="1">
          <mxGeometry x="520" y="590" width="170" height="60" as="geometry" />
        </mxCell>
        <mxCell id="r8TldyLNZNYGHYZAbkJL-24" value="" style="endArrow=classic;html=1;rounded=0;exitX=0.5;exitY=1;exitDx=0;exitDy=0;" edge="1" parent="1" source="r8TldyLNZNYGHYZAbkJL-23">
          <mxGeometry width="50" height="50" relative="1" as="geometry">
            <mxPoint x="360" y="580" as="sourcePoint" />
            <mxPoint x="615.3125" y="671" as="targetPoint" />
          </mxGeometry>
        </mxCell>
        <mxCell id="r8TldyLNZNYGHYZAbkJL-26" value="" style="endArrow=classic;html=1;rounded=0;exitX=0.5;exitY=1;exitDx=0;exitDy=0;entryX=0.547;entryY=0.073;entryDx=0;entryDy=0;entryPerimeter=0;" edge="1" parent="1" target="r8TldyLNZNYGHYZAbkJL-13">
          <mxGeometry width="50" height="50" relative="1" as="geometry">
            <mxPoint x="410" y="340" as="sourcePoint" />
            <mxPoint x="555" y="220" as="targetPoint" />
          </mxGeometry>
        </mxCell>
        <mxCell id="r8TldyLNZNYGHYZAbkJL-27" value="findNodeByIndex" style="shape=parallelogram;perimeter=parallelogramPerimeter;whiteSpace=wrap;html=1;fixedSize=1;strokeColor=#0000FF;" vertex="1" parent="1">
          <mxGeometry x="100" y="580" width="170" height="60" as="geometry" />
        </mxCell>
        <mxCell id="r8TldyLNZNYGHYZAbkJL-28" value="This function will traverse the link list if head != nullptr and output the name of account ands its it. It will have a index and output it to the left&amp;nbsp; " style="rounded=0;whiteSpace=wrap;html=1;" vertex="1" parent="1">
          <mxGeometry x="495" y="670" width="260" height="140" as="geometry" />
        </mxCell>
        <mxCell id="r8TldyLNZNYGHYZAbkJL-29" value="PrintAccountList()" style="verticalLabelPosition=bottom;verticalAlign=top;html=1;shape=process;whiteSpace=wrap;rounded=1;size=0.14;arcSize=6;" vertex="1" parent="1">
          <mxGeometry x="325" y="270" width="190" height="60" as="geometry" />
        </mxCell>
        <mxCell id="r8TldyLNZNYGHYZAbkJL-32" value="" style="edgeStyle=orthogonalEdgeStyle;rounded=0;orthogonalLoop=1;jettySize=auto;html=1;" edge="1" parent="1" source="r8TldyLNZNYGHYZAbkJL-30" target="r8TldyLNZNYGHYZAbkJL-31">
          <mxGeometry relative="1" as="geometry" />
        </mxCell>
        <mxCell id="r8TldyLNZNYGHYZAbkJL-30" value="PrintAccountList()" style="verticalLabelPosition=bottom;verticalAlign=top;html=1;shape=process;whiteSpace=wrap;rounded=1;size=0.14;arcSize=6;" vertex="1" parent="1">
          <mxGeometry x="270" y="690" width="100" height="60" as="geometry" />
        </mxCell>
        <mxCell id="r8TldyLNZNYGHYZAbkJL-31" value="" style="verticalLabelPosition=bottom;verticalAlign=top;html=1;shape=process;whiteSpace=wrap;rounded=1;size=0.14;arcSize=6;" vertex="1" parent="1">
          <mxGeometry x="270" y="830" width="100" height="60" as="geometry" />
        </mxCell>
        <mxCell id="r8TldyLNZNYGHYZAbkJL-33" value="choice = checkVaildInteger()" style="rounded=0;whiteSpace=wrap;html=1;strokeColor=#FF8000;" vertex="1" parent="1">
          <mxGeometry x="315" y="550" width="160" height="60" as="geometry" />
        </mxCell>
        <mxCell id="r8TldyLNZNYGHYZAbkJL-34" value="&lt;div&gt;choice = 0;&lt;/div&gt;" style="rounded=0;whiteSpace=wrap;html=1;strokeColor=#FF8000;" vertex="1" parent="1">
          <mxGeometry x="140" y="200" width="130" height="30" as="geometry" />
        </mxCell>
      </root>
    </mxGraphModel>
  </diagram>
</mxfile>
